<?xml version="1.0" standalone="no"?><svg xmlns="http://www.w3.org/2000/svg" viewBox="0 0 1440 320"><path fill="#FFFFFF" fill-opacity="1" d="M0,64L48,96L96,128L144,96L192,64L240,192L288,192L336,192L384,32L432,32L480,224L528,32L576,128L624,64L672,32L720,256L768,128L816,128L864,96L912,96L960,160L1008,64L1056,128L1104,160L1152,160L1200,0L1248,160L1296,128L1344,256L1392,224L1440,160L1440,320L1392,320L1344,320L1296,320L1248,320L1200,320L1152,320L1104,320L1056,320L1008,320L960,320L912,320L864,320L816,320L768,320L720,320L672,320L624,320L576,320L528,320L480,320L432,320L384,320L336,320L288,320L240,320L192,320L144,320L96,320L48,320L0,320Z"></path></svg>